<?xml version="1.0" encoding="UTF-8" standalone="no"?>
<!-- Created with Inkscape (http://www.inkscape.org/) -->

<svg
   width="793.70081"
   height="1122.5197"
   viewBox="0 0 210 296.99999"
   version="1.1"
   id="svg1"
   xml:space="preserve"
   inkscape:version="1.4.3 (0d15f75, 2025-12-25)"
   sodipodi:docname="RwaPremierBlack.svg"
   inkscape:export-filename="RwandaPremierBlack.svg.2026_01_16_12_34_06.0.png"
   inkscape:export-xdpi="96"
   inkscape:export-ydpi="96"
   xmlns:inkscape="http://www.inkscape.org/namespaces/inkscape"
   xmlns:sodipodi="http://sodipodi.sourceforge.net/DTD/sodipodi-0.dtd"
   xmlns="http://www.w3.org/2000/svg"
   xmlns:svg="http://www.w3.org/2000/svg"><sodipodi:namedview
     id="namedview1"
     pagecolor="#ffffff"
     bordercolor="#f1f1f1"
     borderopacity="1"
     inkscape:showpageshadow="0"
     inkscape:pageopacity="0"
     inkscape:pagecheckerboard="0"
     inkscape:deskcolor="#505050"
     inkscape:document-units="px"
     inkscape:zoom="0.7071068"
     inkscape:cx="414.36456"
     inkscape:cy="420.02142"
     inkscape:window-width="1169"
     inkscape:window-height="688"
     inkscape:window-x="156"
     inkscape:window-y="32"
     inkscape:window-maximized="0"
     inkscape:current-layer="layer6"
     showgrid="false"><inkscape:grid
       id="grid25"
       units="px"
       originx="0"
       originy="0"
       spacingx="0.26458333"
       spacingy="0.26458333"
       empcolor="#0099e5"
       empopacity="0.30196078"
       color="#0099e5"
       opacity="0.14901961"
       empspacing="5"
       enabled="true"
       visible="false" /></sodipodi:namedview><defs
     id="defs1"><inkscape:path-effect
       effect="powerstroke"
       message=""
       id="path-effect3"
       is_visible="true"
       lpeversion="1.3"
       scale_width="1"
       interpolator_type="CentripetalCatmullRom"
       interpolator_beta="0.75"
       start_linecap_type="round"
       end_linecap_type="round"
       offset_points="47.638015,6.3639608"
       linejoin_type="spiro"
       miter_limit="4"
       not_jump="true"
       sort_points="true" /><inkscape:path-effect
       effect="simplify"
       id="path-effect2"
       is_visible="true"
       lpeversion="1.3"
       threshold="0.012"
       steps="1"
       smooth_angles="0"
       helper_size="0"
       simplify_individual_paths="false"
       simplify_just_coalesce="false"
       step="1" /><inkscape:path-effect
       effect="mirror_symmetry"
       start_point="101.42563,75.86372"
       end_point="101.42563,155.59884"
       center_point="101.42563,115.73128"
       id="path-effect16"
       is_visible="true"
       lpeversion="1.2"
       lpesatellites=""
       mode="free"
       discard_orig_path="false"
       fuse_paths="true"
       oposite_fuse="false"
       split_items="false"
       split_open="false"
       link_styles="false" /><inkscape:path-effect
       effect="mirror_symmetry"
       start_point="101.42563,75.863719"
       end_point="101.42563,155.59884"
       center_point="101.42563,115.73128"
       id="path-effect14"
       is_visible="true"
       lpeversion="1.2"
       lpesatellites=""
       mode="free"
       discard_orig_path="false"
       fuse_paths="true"
       oposite_fuse="false"
       split_items="false"
       split_open="false"
       link_styles="false" /><inkscape:path-effect
       effect="bspline"
       id="path-effect7"
       is_visible="true"
       lpeversion="1.3"
       weight="33.333333"
       steps="2"
       helper_size="0"
       apply_no_weight="true"
       apply_with_weight="true"
       only_selected="false"
       uniform="false" /><inkscape:path-effect
       effect="spiro"
       id="path-effect6"
       is_visible="true"
       lpeversion="1" /><inkscape:path-effect
       effect="spiro"
       id="path-effect5"
       is_visible="true"
       lpeversion="1" /><inkscape:path-effect
       effect="spiro"
       id="path-effect4"
       is_visible="true"
       lpeversion="1" /><inkscape:path-effect
       effect="spiro"
       id="path-effect1"
       is_visible="true"
       lpeversion="1" /></defs><g
     inkscape:label="Layer 1"
     inkscape:groupmode="layer"
     id="layer1" /><g
     inkscape:groupmode="layer"
     id="layer4"
     inkscape:label="ArmsRough"
     style="display:none;opacity:0.342"><rect
       style="fill:none;stroke:#000000;stroke-width:0.234787"
       id="rect16"
       width="24.751961"
       height="23.242693"
       x="91.271149"
       y="211.85921"
       inkscape:label="Hand" /><rect
       style="fill:none;stroke:#000000;stroke-width:0.198572"
       id="rect15"
       width="17.690979"
       height="30.688435"
       x="143.82489"
       y="152.65784"
       transform="rotate(11.590063)"
       inkscape:label="Forearm" /><rect
       style="fill:none;stroke:#000000;stroke-width:0.198572"
       id="rect17"
       width="17.690979"
       height="30.688435"
       x="186.92813"
       y="67.535538"
       transform="rotate(28.580638)"
       inkscape:label="LftArm" /><path
       id="rect18"
       style="fill:none;stroke:#000000;stroke-width:0.198572"
       inkscape:label="Forearm"
       d="m 86.81914,170.04475 -13.901548,10.9128 18.858848,24.02503 z" /><circle
       style="fill:none;stroke:#000000;stroke-width:0.252755"
       id="circle16"
       cx="71.872932"
       cy="157.47528"
       r="14.720184"
       inkscape:label="LftShoulder" /><circle
       style="fill:none;stroke:#000000;stroke-width:0.291042"
       id="circle17"
       cx="141.40387"
       cy="143.75806"
       r="16.949999"
       inkscape:label="RghtShoulder" /></g><g
     inkscape:groupmode="layer"
     id="layer5"
     inkscape:label="Arms"><path
       style="fill:#000000;stroke:none;stroke-width:0.291042"
       d="m 100.60745,176.6727 -11.75327,11.65771 2.532207,3.20109 v 8.16995 H 116.08735 V 187.2793 l -4.09,-1.09591 v -9.60624 z"
       id="path23"
       sodipodi:nodetypes="ccccccccc"
       inkscape:label="hand" /><g
       id="g1"
       inkscape:label="Forearm"
       transform="translate(0,-35.172669)"
       style="fill:#000000"><path
         style="display:inline;opacity:1;fill:#000000;stroke:none;stroke-width:0.291042"
         d="m 123.19266,186.39093 -14.45946,21.08108 9.86486,-19.05405 -1.4387,-1.95466 z"
         id="path22"
         sodipodi:nodetypes="ccccc"
         inkscape:label="forearm1" /><path
         style="fill:#000000;stroke:none;stroke-width:0.291042"
         d="m 121.48692,178.64424 -12.83783,-2.56756 -5.94595,29.86486 13.64865,-25.13514 z"
         id="path20"
         inkscape:label="forearm" /><path
         style="fill:#000000;stroke:none;stroke-width:0.291042"
         d="m 126.76495,179.45268 -0.81081,5.13514 h -6.21621 v -2.70271 z"
         id="path21"
         inkscape:label="elbow" /></g><g
       id="g2"
       inkscape:label="RShoulder"
       transform="translate(0,-35.172669)"
       style="fill:#000000"><path
         style="display:inline;fill:#000000;stroke:none;stroke-width:0.291042"
         d="m 137.21694,162.73012 -8.02662,2.9622 -7.73995,10.98882 4.58664,-15.57546 5.25552,-2.57998 z"
         id="path19"
         inkscape:label="tri1" /><path
         style="display:inline;fill:#000000;stroke:none;stroke-width:0.291042"
         d="m 134.63696,128.04366 13.75991,0.0956 8.98217,9.65106 6.11552,18.15544 -6.5933,-5.15996 -0.95555,11.94437 -3.43998,-6.01997 -6.59329,3.8222 -1.0511,8.50439 -15.85171,13.14982 9.16286,-19.93422 -12.70881,-9.36438 12.13548,4.10886 1.71999,-12.13548 2.38887,12.03992 11.75326,-11.37104 -8.98216,-15.38435 z"
         id="path18"
         sodipodi:nodetypes="cccccccccccccccccc"
         inkscape:label="Rshoulder" /></g><g
       id="g3"
       inkscape:label="LShoulder"
       transform="translate(0,-35.172669)"
       style="fill:#000000"><path
         style="fill:#000000;stroke:none;stroke-width:0.291042"
         d="m 63.804557,171.59558 13.855472,-10.98882 5.064414,34.97312 -11.466597,-23.9843 z"
         id="path24"
         inkscape:label="Larm" /><path
         style="fill:#000000;stroke:none;stroke-width:0.327155"
         d="m 72.025601,136.13993 -12.759863,-4.63304 -13.747232,9.41799 -0.646583,3.34837 -2.16094,2.66432 -1.625959,7.76106 3.703382,-4.6364 1.489615,6.20487 10.25346,7.89896 16.101729,-4.78495 4.405193,-9.26609 -6.835641,4.32924 -13.13962,-7.74705 7.823012,9.34203 -4.633045,-0.98736 -8.202768,-9.64585 3.721625,11.24083 -7.443252,-10.63322 8.126816,-10.55727 z"
         id="path25"
         sodipodi:nodetypes="cccccccccccccccccccc"
         inkscape:label="Lshoulder" /></g><path
       id="rect27"
       style="fill:#000000;stroke-width:0.19722"
       inkscape:label="ped3"
       d="m 77.35748,211.19803 h 53.00491 c 0.34185,0 0.61706,0.27521 0.61706,0.61706 v 3.01202 c 0,0.34185 -0.27521,0.61706 -0.61706,0.61706 H 77.35748 c -0.341853,0 -0.617063,-0.27521 -0.617063,-0.61706 v -3.01202 c 0,-0.34185 0.27521,-0.61706 0.617063,-0.61706 z" /><path
       id="rect26"
       style="fill:#000000;stroke-width:0.2069"
       inkscape:label="ped2"
       d="m 81.380093,206.19444 h 45.077277 c 0.35863,0 0.64735,0.28872 0.64735,0.64735 v 2.72345 c 0,0.35863 -0.28872,0.64735 -0.64735,0.64735 H 81.380093 c -0.358632,0 -0.647351,-0.28872 -0.647351,-0.64735 v -2.72345 c 0,-0.35863 0.288719,-0.64735 0.647351,-0.64735 z" /><path
       id="rect25"
       style="fill:#000000;stroke-width:0.163217"
       inkscape:label="ped1"
       d="m 85.118629,201.83325 h 37.343341 c 0.28291,0 0.51067,0.22776 0.51067,0.51067 v 2.02716 c 0,0.28291 -0.22776,0.51067 -0.51067,0.51067 H 85.118629 c -0.282913,0 -0.510673,-0.22776 -0.510673,-0.51067 v -2.02716 c 0,-0.28291 0.22776,-0.51067 0.510673,-0.51067 z" /><path
       d="m 84.512747,232.80159 h -2.353695 l -2.488742,-7.01285 q 0,0 0,-1.36013 h 2.218646 v -4.78456 h -2.845655 v 13.15754 h -2.257232 v -15.09644 h 5.990346 q 1.360127,0 1.360127,1.38906 v 5.48874 q 0,0.95498 -0.646302,1.23473 -0.347266,0.14469 -1.466236,0.14469 z m 12.520883,-15.09644 -2.209,15.11573 h -2.209 l -1.35048,-8.55626 q -0.01929,-0.46302 -0.07717,-1.37942 0,0.46303 -0.07717,1.37942 l -1.340834,8.55626 h -2.218647 l -2.209,-15.11573 h 2.286171 l 1.167201,8.95175 q 0.02894,0.46303 0.07717,1.37942 0.0096,-0.46302 0.08682,-1.37942 l 1.302249,-8.95175 h 1.852087 l 1.302249,8.95175 q 0.02894,0.46303 0.08682,1.37942 0.0096,-0.46302 0.07717,-1.37942 l 1.167201,-8.95175 z m 8.91317,15.09644 h -2.23794 l -0.45337,-2.86495 h -2.82637 l -0.453372,2.86495 h -2.228292 v -0.0386 l 2.922824,-15.07714 h 2.37299 z m -3.00964,-4.80385 -1.09968,-6.81028 -1.10932,6.81028 z m 11.92281,4.80385 h -1.97749 L 109.26513,223.3 q 0.14469,0.69453 0.14469,1.09003 v 8.41156 h -2.19935 v -15.09644 h 1.97749 l 3.61735,9.30867 q -0.14469,-0.69454 -0.14469,-1.09003 v -8.21864 h 2.19935 z m 9.33761,-2.84566 q 0,1.33119 -0.791,2.09325 -0.79099,0.75241 -2.13183,0.75241 h -4.60128 v -15.09644 h 4.60128 q 1.34084,0 2.13183,0.7717 0.791,0.76206 0.791,2.09325 z m -2.26688,-0.3762 v -8.67201 q 0,-1.26367 -1.32154,-1.26367 h -1.67845 v 11.21864 h 1.62057 q 1.37942,0 1.37942,-1.28296 z m 11.66237,3.22186 h -2.23794 l -0.45338,-2.86495 h -2.82636 l -0.45338,2.86495 h -2.22829 v -0.0386 l 2.92283,-15.07714 h 2.37298 z m -3.00965,-4.80385 -1.09967,-6.81028 -1.10933,6.81028 z"
       id="text3"
       style="font-weight:bold;font-stretch:condensed;font-size:19.7556px;font-family:'Agency FB';-inkscape-font-specification:'Agency FB, Bold Condensed';fill:#000000;stroke-width:0.291042"
       aria-label="RWANDA" /><path
       d="m 73.467354,240.78117 q 0,0.90537 -0.886768,0.90537 h -2.350244 v 3.51607 h -1.451074 v -9.70484 h 3.801318 q 0.886768,0 0.886768,0.89297 z m -1.463477,-0.34106 v -3.6959 h -1.773535 v 3.6959 z m 7.46001,4.7625 h -1.513086 l -1.599903,-4.50826 q 0,0 0,-0.87436 h 1.42627 v -3.07578 h -1.829346 v 8.4584 h -1.451074 v -9.70484 h 3.850928 q 0.874365,0 0.874365,0.89297 v 3.52847 q 0,0.61391 -0.415479,0.79375 -0.223242,0.093 -0.942578,0.093 z m 4.911328,0 h -4.024561 v -9.70484 h 3.987354 v 1.28364 h -2.53628 v 2.83394 h 2.182813 v 1.25884 h -2.182813 v 3.04477 h 2.573487 z m 6.858496,0 h -1.395264 v -4.78731 q 0,-0.37827 0.08682,-1.0542 l -1.252637,4.95474 H 87.934688 L 86.67585,239.3611 q 0.08682,0.68833 0.08682,1.0542 v 4.78731 h -1.395263 v -9.70484 h 1.370459 l 1.525488,5.36402 q 0.02481,0.0868 0.03721,0.44028 0,-0.15503 0.03721,-0.44028 l 1.525488,-5.36402 h 1.370459 z m 2.635497,0 h -1.451074 v -9.70484 h 1.451074 z m 5.215186,0 h -4.024561 v -9.70484 h 3.987354 v 1.28364 h -2.53628 v 2.83394 h 2.182813 v 1.25884 h -2.182813 v 3.04477 h 2.573487 z m 5.959326,0 h -1.51309 l -1.5999,-4.50826 q 0,0 0,-0.87436 h 1.42627 v -3.07578 h -1.82934 v 8.4584 h -1.45108 v -9.70484 h 3.85093 q 0.87436,0 0.87436,0.89297 v 3.52847 q 0,0.61391 -0.41547,0.79375 -0.22325,0.093 -0.94258,0.093 z m 7.31738,0 h -3.81372 v -9.70484 h 1.45108 v 8.40879 h 2.36264 z m 4.88653,0 h -4.02456 v -9.70484 h 3.98735 v 1.28364 h -2.53628 v 2.83394 h 2.18281 v 1.25884 h -2.18281 v 3.04477 h 2.57349 z m 5.90971,0 h -1.43867 l -0.29146,-1.84175 h -1.81694 l -0.29145,1.84175 h -1.43247 v -0.0248 l 1.87895,-9.69243 h 1.52549 z m -1.93476,-3.08819 -0.70694,-4.37802 -0.71313,4.37802 z m 7.54682,2.20142 q 0,0.88677 -0.88676,0.88677 h -3.05098 q -0.86196,0 -0.86196,-0.88677 v -7.9251 q 0,-0.89297 0.88056,-0.89297 h 3.03238 q 0.88676,0 0.88676,0.89297 v 2.07119 h -1.45727 v -1.71772 h -1.89136 v 7.21196 h 1.89136 v -2.71611 h -1.079 v -1.23404 h 2.53627 z m 6.01514,0 q 0,0.88677 -0.89297,0.88677 h -3.08198 q -0.88057,0 -0.88057,-0.88677 v -8.81807 h 1.45108 v 8.4584 h 1.95336 v -8.4584 h 1.45108 z m 5.19038,0.88677 h -4.02456 v -9.70484 h 3.98735 v 1.28364 h -2.53628 v 2.83394 h 2.18281 v 1.25884 h -2.18281 v 3.04477 h 2.57349 z"
       id="text5"
       style="font-weight:bold;font-stretch:condensed;font-size:12.7px;font-family:'Agency FB';-inkscape-font-specification:'Agency FB, Bold Condensed';fill:#000000;stroke-width:0.291042"
       aria-label="PREMIER LEAGUE" /></g><g
     inkscape:groupmode="layer"
     id="layer3"
     inkscape:label="Head"
     style="display:inline;opacity:1;fill:#000000"><path
       id="path14"
       style="fill:none;fill-opacity:1;stroke:none;stroke-width:0.291042;stroke-dasharray:none;stroke-opacity:1"
       d="M 106.74025 66.557694 L 100.60161 68.214957 L 94.277448 66.61092 L 91.837804 71.31761 L 94.065058 75.189208 L 92.474458 76.302835 L 91.996967 80.969734 L 95.072748 83.196988 L 100.54632 80.093818 L 106.79296 83.302924 L 109.1799 80.969734 L 108.49002 76.196898 L 107.11129 75.082754 L 109.23261 71.158446 L 106.74025 66.557694 z " /><path
       id="path13"
       style="fill:none;fill-opacity:1;stroke:none;stroke-width:0.291042;stroke-dasharray:none;stroke-opacity:1"
       d="M 106.98623 53.445316 L 100.56905 56.255997 L 94.099165 53.551769 L 88.000312 56.41516 L 85.348794 66.915811 L 88.106249 65.537084 L 86.780232 68.082665 L 87.045848 70.893346 L 95.531118 64.84772 L 91.765457 64.158357 L 89.167166 60.286759 L 92.932311 59.013968 L 98.129409 60.180822 L 99.233218 59.081664 L 100.52565 60.233532 L 101.89507 59.013968 L 103.22057 60.286759 L 108.25902 58.960741 L 112.13011 60.286759 L 109.53181 64.211067 L 105.66022 64.84772 L 114.35788 70.946573 L 114.51652 68.294538 L 113.29696 65.483857 L 115.89577 66.809875 L 113.29696 56.36245 L 106.98623 53.445316 z " /><path
       id="path16"
       style="fill:none;fill-opacity:1;stroke:none;stroke-width:0.291042;stroke-dasharray:none;stroke-opacity:1"
       d="M 83.898237 54.749112 L 89.864798 53.340929 L 100.47294 53.408626 L 111.01338 53.340929 L 116.89209 54.827144 L 117.04195 54.340868 L 117.04195 52.438659 L 110.67851 43.262992 L 100.47035 40.690539 L 90.261156 43.262992 L 83.898237 52.438659 L 83.898237 54.749112 z " /><path
       id="path26"
       style="display:inline;opacity:1;fill:none;fill-opacity:1;stroke:none;stroke-width:0.291042;stroke-dasharray:none;stroke-opacity:1"
       d="M 100.58869 81.828596 L 95.59313 83.294656 L 94.383902 84.674934 L 106.68754 84.674934 L 105.58735 83.159781 L 100.58869 81.828596 z " /><path
       id="path54"
       style="display:inline;opacity:1;fill:#000000;fill-opacity:1;stroke:none;stroke-width:0.291042;stroke-dasharray:none;stroke-opacity:1"
       d="M 89.864798 53.340929 L 83.898237 54.749112 L 83.898237 59.015002 L 80.105187 61.585387 L 80.105187 72.059683 L 68.730171 85.317789 L 67.350927 98.15163 L 72.335635 90.514887 L 71.063878 95.606566 L 71.063878 100.69876 L 74.88225 107.38001 L 76.261494 100.80418 L 77.427314 106.1067 L 81.35834 110.07803 L 81.475646 109.43776 L 85.918785 103.63812 L 93.870238 98.212608 L 100.7923 96.856102 L 107.99547 98.212608 L 115.66581 102.70277 L 120.16011 108.0704 L 120.48567 109.16491 L 123.51287 106.1067 L 124.67869 100.80418 L 126.05742 107.38001 L 129.87579 100.69876 L 129.87579 95.606566 L 128.60455 90.514887 L 133.58874 98.15163 L 132.21002 85.317789 L 120.835 72.059683 L 120.835 61.585387 L 117.04195 59.015002 L 117.04195 54.340868 L 116.89209 54.827144 L 111.01338 53.340929 L 100.47294 53.408626 L 89.864798 53.340929 z M 106.98623 53.445316 L 113.29696 56.36245 L 115.89577 66.809875 L 113.29696 65.483857 L 114.51652 68.294538 L 114.35788 70.946573 L 105.66022 64.84772 L 109.53181 64.211067 L 112.13011 60.286759 L 108.25902 58.960741 L 103.22057 60.286759 L 101.89507 59.013968 L 100.52565 60.233532 L 99.233218 59.081664 L 98.129409 60.180822 L 92.932311 59.013968 L 89.167166 60.286759 L 91.765457 64.158357 L 95.531118 64.84772 L 87.045848 70.893346 L 86.780232 68.082665 L 88.106249 65.537084 L 85.348794 66.915811 L 88.000312 56.41516 L 94.099165 53.551769 L 100.56905 56.255997 L 106.98623 53.445316 z M 106.74025 66.557694 L 109.23261 71.158446 L 107.11129 75.082754 L 108.49002 76.196898 L 109.1799 80.969734 L 106.79296 83.302924 L 100.54632 80.093818 L 95.072748 83.196988 L 91.996967 80.969734 L 92.474458 76.302835 L 94.065058 75.189208 L 91.837804 71.31761 L 94.277448 66.61092 L 100.60161 68.214957 L 106.74025 66.557694 z " /><path
       id="path27"
       style="display:inline;opacity:1;fill:none;fill-opacity:1;stroke:none;stroke-width:0.291042;stroke-dasharray:none;stroke-opacity:1"
       d="M 100.58869 81.828596 L 95.59313 83.294656 L 94.383902 84.674934 L 106.68754 84.674934 L 105.58735 83.159781 L 100.58869 81.828596 z " /></g><g
     inkscape:groupmode="layer"
     id="layer2"
     inkscape:label="Face"
     style="display:inline;opacity:1"><path
       style="display:inline;fill:#000000;stroke:none;stroke-width:0.291042;stroke-dasharray:none;stroke-opacity:1"
       d="m 99.074304,74.417481 v -3.60624 h -4.826002 z"
       id="path9" /><path
       style="display:inline;fill:#000000;stroke:none;stroke-width:0.291042;stroke-dasharray:none;stroke-opacity:1"
       d="m 101.9817,74.485051 v -3.71231 h 4.93207 z"
       id="path10" /><path
       style="display:inline;fill:#ffffff;fill-opacity:1;stroke:#000000;stroke-width:0.291042;stroke-dasharray:none;stroke-opacity:1"
       d="m 100.55106,52.347102 1.24185,-2.608622 3.7875,-1.3125 -1.1625,2.587498 h 5.0625 l -1.3125,-1.35 h 2.7 l -1.35,-1.349999 h -2.5875 l 1.2,-1.199999 -1.275,-1.275001 h -2.475 l 1.275,-2.625 -3.825,1.237501 -1.275,-1.200001 -1.275005,1.200001 -3.825002,-1.237501 1.237501,2.550001 h -2.475 l -1.275,1.35 1.237501,1.1625 h -2.775 l -1.050002,1.349999 h 2.550001 l -1.237501,1.425001 5.025001,-0.0375 -1.199999,-2.624998 3.7125,1.35 z"
       id="path12"
       sodipodi:nodetypes="ccccccccccccccccccccccccccccc" /></g><g
     inkscape:groupmode="layer"
     id="layer6"
     inkscape:label="Crown"><path
       style="fill:#000000;stroke:none;stroke-width:0.291042"
       d="m 83.581082,53.948955 6.013513,-1.418921 10.608105,0.06757 10.54054,-0.06757 5.87838,1.486487 6.12948,-19.881799 -10.52137,5.287203 V 30.16517 l -4.05405,7.837837 -7.97298,-11.95946 -7.905402,12.027027 -3.986485,-7.972973 v 9.256757 L 77.778717,34.134765 Z"
       id="path28"
       sodipodi:nodetypes="ccccccccccccccc" /></g><g
     inkscape:groupmode="layer"
     id="layer7"
     inkscape:label="Ball"><g
       id="g6"
       inkscape:label="Lines"
       style="fill:#000000;stroke:#000000"><path
         style="fill:#000000;stroke:#000000;stroke-width:0.291042"
         d="m 109.93437,121.72524 -4.82864,-8.40052"
         id="path35" /><path
         style="fill:#000000;stroke:#000000;stroke-width:0.291042"
         d="m 116.41667,121.39452 2.44739,-8.20209"
         id="path36" /><path
         style="fill:#000000;stroke:#000000;stroke-width:0.291042"
         d="m 107.61927,106.11483 7.2099,0.39687"
         id="path37" /><path
         style="fill:#000000;stroke:#000000;stroke-width:0.291042"
         d="m 93.33177,106.44556 -7.408334,1.19062"
         id="path38" /><path
         style="fill:#000000;stroke:#000000;stroke-width:0.291042"
         d="m 92.141145,122.12212 4.101041,-8.7974"
         id="path39" /><path
         style="fill:#000000;stroke:#000000;stroke-width:0.291042"
         d="m 82.748436,115.04451 2.976563,7.34219"
         id="path40" /><path
         style="fill:#000000;stroke:#000000;stroke-width:0.291042"
         d="m 92.8026,133.69764 4.894795,4.36563"
         id="path41" /><path
         style="fill:#000000;stroke:#000000;stroke-width:0.291042"
         d="m 106.03177,137.79868 4.16719,-4.69635"
         id="path42" /><path
         style="fill:#000000;stroke:#000000;stroke-width:0.291042"
         d="m 96.374475,128.93514 9.458855,-0.19844"
         id="path46" /><path
         style="fill:#000000;stroke:#000000;stroke-width:0.291042"
         d="m 100.27708,101.41847 0.26459,-2.976559"
         id="path47" /><path
         style="fill:#000000;stroke:#000000;stroke-width:0.291042"
         d="m 85.923431,103.66743 7.739068,-5.357809"
         id="path48" /><path
         style="fill:#000000;stroke:#000000;stroke-width:0.291042"
         d="m 107.81771,98.309621 7.60677,4.431769"
         id="path49" /><path
         style="fill:#000000;stroke:#000000;stroke-width:0.291042"
         d="m 122.03906,114.64764 0.43386,6.67936"
         id="path50" /><path
         style="fill:#000000;stroke:#000000;stroke-width:0.291042"
         d="m 80.301038,116.10285 0.297659,7.67292"
         id="path51" /></g><g
       id="g4"
       inkscape:label="BlackDots"
       style="fill:#000000;stroke:#000000"><path
         style="fill:#000000;stroke:#000000;stroke-width:0.291042"
         d="m 100.27708,101.41847 -6.94531,5.02709 2.910416,6.87916 h 8.863544 l 2.51354,-7.20989 z"
         id="path29" /><path
         style="fill:#000000;stroke:#000000;stroke-width:0.291042"
         d="m 92.141145,122.12212 -6.416146,0.26458 -0.06615,6.94532 7.14375,4.36562 3.571875,-4.7625 z"
         id="path30" /><path
         style="fill:#000000;stroke:#000000;stroke-width:0.291042"
         d="m 105.83333,128.7367 4.36563,4.36563 7.14375,-4.82865 -0.92604,-6.87916 -6.4823,0.33072 z"
         id="path31" /><path
         style="fill:#000000;stroke:#000000;stroke-width:0.291042"
         d="m 82.748437,115.04451 3.174999,-7.40833 -4e-6,-3.96875 -4.299479,5.82084 -1.322916,6.61458 z"
         id="path32"
         sodipodi:nodetypes="cccccc" /><path
         style="fill:#000000;stroke:#000000;stroke-width:0.291042"
         d="m 114.82917,106.5117 4.03489,6.68073 3.175,1.45521 -2.05052,-6.61458 -4.56406,-5.29167 z"
         id="path33"
         sodipodi:nodetypes="cccccc" /><path
         style="fill:#000000;stroke:#000000;stroke-width:0.291042"
         d="m 97.697395,138.06327 8.334375,-0.26459 3.30729,0.59531 -7.40833,1.85209 -6.945315,-1.25677 z"
         id="path34" /><path
         style="fill:#000000;stroke:#000000;stroke-width:0.291042"
         d="m 100.54167,98.441911 7.27604,-0.13229 -7.27604,-1.32292 -6.879171,1.32292 z"
         id="path43" /><path
         style="fill:#000000;stroke:#000000;stroke-width:0.291042"
         d="m 120.60203,126.91627 1.87089,-5.58927 -1.21608,5.75297 -1.07576,1.80074 z"
         id="path44" /><path
         style="fill:#000000;stroke:#000000;stroke-width:0.291042"
         d="m 83.046093,129.13358 -2.447396,-5.35781 1.620573,4.7625 1.223698,2.18281 z"
         id="path45" /></g><g
       id="g5"
       inkscape:label="WhiteDots"
       style="fill:none;stroke:#000000"><path
         style="fill:none;stroke:#000000;stroke-width:0.291042"
         d="m 83.442968,130.72108 11.542447,8.26823"
         id="path52" /><path
         style="fill:none;stroke:#000000;stroke-width:0.291042"
         d="m 109.33906,138.39399 10.84202,-9.51328"
         id="path53" /><path
         style="fill:none;stroke:#000000;stroke-width:0.291042"
         d="m 96.444208,128.52992 -3.975634,-6.31425 3.928862,-8.70222 8.498834,-0.0468 4.84251,8.54771 -3.84659,6.46875 z"
         id="path61"
         sodipodi:nodetypes="ccccccc" /><path
         style="fill:none;stroke:#000000;stroke-width:0.291042"
         d="m 107.62275,106.31313 -2.37427,6.99669 4.8532,8.34459 6.03361,-0.28064 2.5257,-8.27867 -3.83532,-6.45456 z"
         id="path62"
         sodipodi:nodetypes="ccccccc" /><path
         style="fill:none;stroke:#000000;stroke-width:0.291042"
         d="m 82.880728,114.84608 3.042708,7.47448 6.019271,-0.26459 4.051433,-8.83047 -2.66237,-6.51536 -7.333919,1.10794 z"
         id="path63"
         sodipodi:nodetypes="ccccccc" /><path
         style="fill:none;stroke:#000000;stroke-width:0.291042"
         d="m 86.055728,103.79972 7.805208,-5.357809 6.482294,0.0662 -0.23352,2.852299 -6.711795,4.88676 -7.342187,1.12448 z"
         id="path64"
         sodipodi:nodetypes="ccccccc" /><path
         style="fill:none;stroke:#000000;stroke-width:0.291042"
         d="m 100.80625,98.508061 -0.24119,2.902739 6.92192,4.43944 7.25123,0.34727 0.55398,-3.19154 -7.60677,-4.630199 z"
         id="path65"
         sodipodi:nodetypes="ccccccc" /><path
         style="fill:none;stroke:#000000;stroke-width:0.291042"
         d="m 85.593064,129.25488 -2.104747,1.37978 -0.374176,-1.42655 -2.45554,-5.3788 -0.163703,-7.71741 2.022065,-0.87615 3.043028,7.34607 z"
         id="path66"
         sodipodi:nodetypes="cccccccc" /><path
         style="fill:none;stroke:#000000;stroke-width:0.291042"
         d="m 95.041041,138.86656 2.385383,-0.79512 -4.864306,-4.34982 -6.922281,-4.34981 -2.011203,1.40317 z"
         id="path67" /><path
         style="fill:none;stroke:#000000;stroke-width:0.291042"
         d="m 109.20677,138.22863 10.78177,-9.45885 -2.64583,-0.34609 -7.04453,4.67864 -4.00183,4.69635 z"
         id="path68"
         sodipodi:nodetypes="cccccc" /><path
         style="fill:none;stroke:#000000;stroke-width:0.291042"
         d="m 119.10415,113.42133 2.8075,1.21725 0.42095,6.75858 -1.80073,5.51911 -0.3274,1.70719 -2.75956,-0.46772 -0.87615,-6.61543 z"
         id="path69"
         sodipodi:nodetypes="cccccccc" /><path
         style="fill:none;stroke:#000000;stroke-width:0.291042"
         d="m 93.053227,133.58131 3.34421,-4.39659 9.401203,-0.14031 4.06918,3.95224 -4.0458,4.70061 -7.998034,0.21048 z"
         id="path1"
         sodipodi:nodetypes="ccccccc" /></g></g></svg>
